<svg width="600" height="600" viewBox="0 0 600 600" fill="none" xmlns="http://www.w3.org/2000/svg">
  <!-- Magical Background -->
  <defs>
    <linearGradient id="magicBg" x1="0" y1="0" x2="600" y2="600">
      <stop offset="0%" style="stop-color:#2A2356;stop-opacity:0.1"/>
      <stop offset="100%" style="stop-color:#8A4FFF;stop-opacity:0.1"/>
    </linearGradient>
    <filter id="glow" x="-50%" y="-50%" width="200%" height="200%">
      <feGaussianBlur in="SourceGraphic" stdDeviation="10"/>
    </filter>
  </defs>

  <!-- Background Circle -->
  <circle cx="300" cy="300" r="250" fill="url(#magicBg)"/>
  
  <!-- Neural Network Pattern -->
  <g opacity="0.2">
    <circle cx="200" cy="200" r="4" fill="#8A4FFF"/>
    <circle cx="400" cy="200" r="4" fill="#8A4FFF"/>
    <circle cx="300" cy="300" r="4" fill="#8A4FFF"/>
    <circle cx="200" cy="400" r="4" fill="#8A4FFF"/>
    <circle cx="400" cy="400" r="4" fill="#8A4FFF"/>
    <path d="M200 200L300 300M300 300L400 200M200 400L300 300M300 300L400 400" 
          stroke="#8A4FFF" stroke-width="2"/>
  </g>

  <!-- Wise Owl Tutor -->
  <g transform="translate(250, 200)">
    <!-- Body -->
    <path d="M50 100C50 44.7715 94.7715 0 150 0C205.228 0 250 44.7715 250 100C250 155.228 205.228 200 150 200C94.7715 200 50 155.228 50 100Z" 
          fill="#2A2356"/>
    
    <!-- Eyes -->
    <circle cx="100" cy="80" r="30" fill="#8A4FFF"/>
    <circle cx="200" cy="80" r="30" fill="#8A4FFF"/>
    <circle cx="100" cy="80" r="15" fill="white"/>
    <circle cx="200" cy="80" r="15" fill="white"/>
    
    <!-- Circuit Pattern Wings -->
    <path d="M0 100C0 100 50 150 100 150C150 150 200 100 200 100" 
          stroke="#8A4FFF" stroke-width="4" fill="none"/>
    <path d="M100 150C100 150 150 200 200 150" 
          stroke="#8A4FFF" stroke-width="4" fill="none"/>
  </g>

  <!-- Floating Books -->
  <g transform="translate(100, 300)">
    <rect width="80" height="100" rx="10" fill="#2A2356"/>
    <rect x="10" y="20" width="60" height="10" fill="#8A4FFF"/>
    <rect x="10" y="40" width="40" height="10" fill="#8A4FFF"/>
  </g>
  
  <g transform="translate(420, 300)">
    <rect width="80" height="100" rx="10" fill="#2A2356"/>
    <rect x="10" y="20" width="60" height="10" fill="#8A4FFF"/>
    <rect x="10" y="40" width="40" height="10" fill="#8A4FFF"/>
  </g>

  <!-- Magical Sparkles -->
  <g filter="url(#glow)">
    <circle cx="150" cy="150" r="3" fill="#FFD700"/>
    <circle cx="450" cy="150" r="3" fill="#FFD700"/>
    <circle cx="300" cy="450" r="3" fill="#FFD700"/>
  </g>

  <!-- AI Particles -->
  <g opacity="0.6">
    <circle cx="200" cy="200" r="2" fill="#4CAF50"/>
    <circle cx="400" cy="200" r="2" fill="#4CAF50"/>
    <circle cx="300" cy="400" r="2" fill="#4CAF50"/>
  </g>
</svg> 